name rise30.6535peak61.5555fall82.9339.mot
datacolumns 19
datarows 45
range 0.000000 0.073334
endheader
time	ground_force1_vx	ground_force1_vy	ground_force1_vz	ground_force1_px	ground_force1_py	ground_force1_pz	ground_force2_vx	ground_force2_vy	ground_force2_vz	ground_force2_px	ground_force2_py	ground_force2_pz	ground_torque1_x	ground_torque1_y	ground_torque1_z	ground_torque2_x	ground_torque2_y	ground_torque2_z	
0.000000	19.454011	716.357449	49.420436	0.259207	0.000000	0.095151	0.000000	0.000000	0.000000	0.000000	0.000000	0.000000	0.000000	14.802096	0.000000	0.000000	0.000000	0.000000	
0.001667	19.395349	715.842948	49.215714	0.258799	0.000000	0.095148	0.000000	0.000000	0.000000	0.000000	0.000000	0.000000	0.000000	14.912502	0.000000	0.000000	0.000000	0.000000	
0.003332	19.337425	715.332674	49.012824	0.258397	0.000000	0.095143	0.000000	0.000000	0.000000	0.000000	0.000000	0.000000	0.000000	15.022086	0.000000	0.000000	0.000000	0.000000	
0.004997	19.280535	714.825531	48.811504	0.258001	0.000000	0.095135	0.000000	0.000000	0.000000	0.000000	0.000000	0.000000	0.000000	15.130116	0.000000	0.000000	0.000000	0.000000	
0.006662	19.224886	714.319808	48.611235	0.257612	0.000000	0.095124	0.000000	0.000000	0.000000	0.000000	0.000000	0.000000	0.000000	15.236006	0.000000	0.000000	0.000000	0.000000	
0.008330	19.170599	713.813436	48.411328	0.257230	0.000000	0.095110	0.000000	0.000000	0.000000	0.000000	0.000000	0.000000	0.000000	15.339304	0.000000	0.000000	0.000000	0.000000	
0.010000	19.117714	713.304237	48.211011	0.256855	0.000000	0.095094	0.000000	0.000000	0.000000	0.000000	0.000000	0.000000	0.000000	15.439673	0.000000	0.000000	0.000000	0.000000	
0.011662	19.066197	712.790141	48.009514	0.256488	0.000000	0.095075	0.000000	0.000000	0.000000	0.000000	0.000000	0.000000	0.000000	15.536874	0.000000	0.000000	0.000000	0.000000	
0.013333	19.015950	712.269371	47.806132	0.256129	0.000000	0.095052	0.000000	0.000000	0.000000	0.000000	0.000000	0.000000	0.000000	15.630740	0.000000	0.000000	0.000000	0.000000	
0.014993	18.966817	711.740578	47.600274	0.255778	0.000000	0.095027	0.000000	0.000000	0.000000	0.000000	0.000000	0.000000	0.000000	15.721159	0.000000	0.000000	0.000000	0.000000	
0.016664	18.918597	711.202921	47.391503	0.255436	0.000000	0.094999	0.000000	0.000000	0.000000	0.000000	0.000000	0.000000	0.000000	15.808051	0.000000	0.000000	0.000000	0.000000	
0.018330	18.871049	710.656110	47.179547	0.255102	0.000000	0.094968	0.000000	0.000000	0.000000	0.000000	0.000000	0.000000	0.000000	15.891355	0.000000	0.000000	0.000000	0.000000	
0.019992	18.823902	710.100401	46.964308	0.254776	0.000000	0.094933	0.000000	0.000000	0.000000	0.000000	0.000000	0.000000	0.000000	15.971012	0.000000	0.000000	0.000000	0.000000	
0.021667	18.776860	709.536560	46.745847	0.254459	0.000000	0.094896	0.000000	0.000000	0.000000	0.000000	0.000000	0.000000	0.000000	16.046959	0.000000	0.000000	0.000000	0.000000	
0.023331	18.729609	708.965798	46.524368	0.254150	0.000000	0.094855	0.000000	0.000000	0.000000	0.000000	0.000000	0.000000	0.000000	16.119122	0.000000	0.000000	0.000000	0.000000	
0.024994	18.681816	708.389690	46.300193	0.253848	0.000000	0.094812	0.000000	0.000000	0.000000	0.000000	0.000000	0.000000	0.000000	16.187414	0.000000	0.000000	0.000000	0.000000	
0.026667	18.633137	707.810094	46.073734	0.253553	0.000000	0.094765	0.000000	0.000000	0.000000	0.000000	0.000000	0.000000	0.000000	16.251735	0.000000	0.000000	0.000000	0.000000	
0.028334	18.583213	707.229057	45.845462	0.253265	0.000000	0.094716	0.000000	0.000000	0.000000	0.000000	0.000000	0.000000	0.000000	16.311977	0.000000	0.000000	0.000000	0.000000	
0.029996	18.531675	706.648738	45.615882	0.252982	0.000000	0.094664	0.000000	0.000000	0.000000	0.000000	0.000000	0.000000	0.000000	16.368026	0.000000	0.000000	0.000000	0.000000	
0.031660	18.478141	706.071335	45.385504	0.252705	0.000000	0.094608	0.000000	0.000000	0.000000	0.000000	0.000000	0.000000	0.000000	16.419768	0.000000	0.000000	0.000000	0.000000	
0.033333	18.422215	705.499028	45.154832	0.252431	0.000000	0.094550	0.000000	0.000000	0.000000	0.000000	0.000000	0.000000	0.000000	16.467095	0.000000	0.000000	0.000000	0.000000	
0.034995	18.363489	704.933935	44.924340	0.252161	0.000000	0.094490	0.000000	0.000000	0.000000	0.000000	0.000000	0.000000	0.000000	16.509913	0.000000	0.000000	0.000000	0.000000	
0.036661	18.301541	704.378086	44.694469	0.251893	0.000000	0.094427	0.000000	0.000000	0.000000	0.000000	0.000000	0.000000	0.000000	16.548142	0.000000	0.000000	0.000000	0.000000	
0.038331	18.235932	703.833405	44.465616	0.251626	0.000000	0.094361	0.000000	0.000000	0.000000	0.000000	0.000000	0.000000	0.000000	16.581725	0.000000	0.000000	0.000000	0.000000	
0.039994	18.166212	703.301708	44.238139	0.251359	0.000000	0.094293	0.000000	0.000000	0.000000	0.000000	0.000000	0.000000	0.000000	16.610627	0.000000	0.000000	0.000000	0.000000	
0.041660	18.091915	702.784708	44.012355	0.251090	0.000000	0.094223	0.000000	0.000000	0.000000	0.000000	0.000000	0.000000	0.000000	16.634842	0.000000	0.000000	0.000000	0.000000	
0.043332	18.012561	702.284028	43.788545	0.250818	0.000000	0.094152	0.000000	0.000000	0.000000	0.000000	0.000000	0.000000	0.000000	16.654390	0.000000	0.000000	0.000000	0.000000	
0.044992	17.927659	701.801216	43.566964	0.250541	0.000000	0.094078	0.000000	0.000000	0.000000	0.000000	0.000000	0.000000	0.000000	16.669319	0.000000	0.000000	0.000000	0.000000	
0.046664	17.836710	701.337763	43.347843	0.250258	0.000000	0.094002	0.000000	0.000000	0.000000	0.000000	0.000000	0.000000	0.000000	16.679705	0.000000	0.000000	0.000000	0.000000	
0.048332	17.739204	700.895118	43.131397	0.249968	0.000000	0.093925	0.000000	0.000000	0.000000	0.000000	0.000000	0.000000	0.000000	16.685650	0.000000	0.000000	0.000000	0.000000	
0.049996	17.634627	700.474708	42.917835	0.249668	0.000000	0.093847	0.000000	0.000000	0.000000	0.000000	0.000000	0.000000	0.000000	16.687278	0.000000	0.000000	0.000000	0.000000	
0.051662	17.522462	700.077944	42.707359	0.249357	0.000000	0.093768	0.000000	0.000000	0.000000	0.000000	0.000000	0.000000	0.000000	16.684738	0.000000	0.000000	0.000000	0.000000	
0.053333	17.402191	699.706233	42.500175	0.249033	0.000000	0.093688	0.000000	0.000000	0.000000	0.000000	0.000000	0.000000	0.000000	16.678198	0.000000	0.000000	0.000000	0.000000	
0.055000	17.273300	699.360982	42.296488	0.248695	0.000000	0.093607	0.000000	0.000000	0.000000	0.000000	0.000000	0.000000	0.000000	16.667845	0.000000	0.000000	0.000000	0.000000	
0.056675	17.135282	699.043596	42.096510	0.248340	0.000000	0.093525	0.000000	0.000000	0.000000	0.000000	0.000000	0.000000	0.000000	16.653880	0.000000	0.000000	0.000000	0.000000	
0.058328	16.987636	698.755480	41.900455	0.247968	0.000000	0.093444	0.000000	0.000000	0.000000	0.000000	0.000000	0.000000	0.000000	16.636520	0.000000	0.000000	0.000000	0.000000	
0.059999	16.829874	698.498028	41.708543	0.247576	0.000000	0.093362	0.000000	0.000000	0.000000	0.000000	0.000000	0.000000	0.000000	16.615995	0.000000	0.000000	0.000000	0.000000	
0.061665	16.661522	698.272617	41.520991	0.247163	0.000000	0.093280	0.000000	0.000000	0.000000	0.000000	0.000000	0.000000	0.000000	16.592543	0.000000	0.000000	0.000000	0.000000	
0.063325	16.482123	698.080601	41.338019	0.246727	0.000000	0.093199	0.000000	0.000000	0.000000	0.000000	0.000000	0.000000	0.000000	16.566414	0.000000	0.000000	0.000000	0.000000	
0.064995	16.291237	697.923297	41.159839	0.246267	0.000000	0.093119	0.000000	0.000000	0.000000	0.000000	0.000000	0.000000	0.000000	16.537867	0.000000	0.000000	0.000000	0.000000	
0.066660	16.088449	697.801981	40.986661	0.245780	0.000000	0.093039	0.000000	0.000000	0.000000	0.000000	0.000000	0.000000	0.000000	16.507165	0.000000	0.000000	0.000000	0.000000	
0.068328	15.873366	697.717871	40.818682	0.245267	0.000000	0.092960	0.000000	0.000000	0.000000	0.000000	0.000000	0.000000	0.000000	16.474581	0.000000	0.000000	0.000000	0.000000	
0.069994	15.645618	697.672129	40.656089	0.244725	0.000000	0.092883	0.000000	0.000000	0.000000	0.000000	0.000000	0.000000	0.000000	16.440392	0.000000	0.000000	0.000000	0.000000	
0.071660	15.404867	697.665844	40.499053	0.244153	0.000000	0.092806	0.000000	0.000000	0.000000	0.000000	0.000000	0.000000	0.000000	16.404878	0.000000	0.000000	0.000000	0.000000	
0.073334	15.150801	697.700036	40.347733	0.243551	0.000000	0.092732	0.000000	0.000000	0.000000	0.000000	0.000000	0.000000	0.000000	16.368325	0.000000	0.000000	0.000000	0.000000	
